nColumns=19
nRows=121
DataType=double
version=3
OpenSimVersion=4.1
endheader
time	ground_force_1_vx	ground_force_1_vy	ground_force_1_vz	ground_force_1_px	ground_force_1_py	ground_force_1_pz	ground_force_1_mx	ground_force_1_my	ground_force_1_mz	ground_force_2_vx	ground_force_2_vy	ground_force_2_vz	ground_force_2_px	ground_force_2_py	ground_force_2_pz	ground_force_2_mx	ground_force_2_my	ground_force_2_mz
1.39	0	0	0	-0.00277529	0	-0.000668895	0	0	0	0	0	0	-0.00277544	0	-0.000667616	0	0	0
1.4	0	0	0	-0.00277529	0	-0.00066902	0	0	0	0	0	0	-0.00277545	0	-0.000667727	0	0	0
1.41	0	0	0	-0.0027753	0	-0.000669145	0	0	0	0	0	0	-0.00277545	0	-0.000667838	0	0	0
1.42	-2.29691	13.5605	-0.857995	-0.0027753	0	-0.00066927	0	0	0	0	0	0	-0.00277546	0	-0.000667949	0	0	0
1.43	0.804532	55.0604	-4.48665	1.1504	0	-0.32806	-0	0.324997	-0	0	0	0	-0.00277546	0	-0.00066806	0	0	0
1.44	-0.397913	209.754	-19.3003	1.05308	0	-0.293153	0	-1.83789	0	0	0	0	-0.00277547	0	-0.00066817	0	0	0
1.45	-14.1737	589.563	-33.0272	1.05938	0	-0.297166	-0	0.659977	-0	0	0	0	-0.00277547	0	-0.00066828	0	0	0
1.46	-68.4956	1109.5	9.19699	1.05887	0	-0.298286	-0	7.14661	-0	0	0	0	-0.00277548	0	-0.00066839	0	0	0
1.47	-165.453	1407.18	129.784	1.05562	0	-0.298869	-0	12.2066	-0	0	0	0	-0.00277548	0	-0.0006685	0	0	0
1.48	-249.367	1374.53	193.923	1.04662	0	-0.299026	-0	11.5685	-0	0	0	0	-0.00277549	0	-0.000668609	0	0	0
1.49	-285.808	1287.3	86.9871	1.02552	0	-0.298069	-0	6.36798	-0	0	0	0	-0.00277549	0	-0.000668718	0	0	0
1.5	-274.648	1314.54	-54.8288	0.989188	0	-0.295079	-0	1.51543	-0	0	0	0	-0.0027755	0	-0.000668826	0	0	0
1.51	-242.547	1420.4	-60.7602	0.946654	0	-0.290609	-0	0.284261	-0	0	0	0	-0.0027755	0	-0.000668934	0	0	0
1.52	-201.408	1510.31	2.49583	0.910253	0	-0.286678	-0	1.55167	-0	0	0	0	-0.00277551	0	-0.000669042	0	0	0
1.53	-151.824	1535.06	-5.70772	0.882079	0	-0.284269	-0	2.27223	-0	0	0	0	-0.00277551	0	-0.000669149	0	0	0
1.54	-112.194	1502.28	-53.8421	0.857175	0	-0.282835	-0	1.17704	-0	0	0	0	-0.00277552	0	-0.000669256	0	0	0
1.55	-87.5571	1451.46	-51.1229	0.829443	0	-0.281625	0	-0.466324	0	0	0	0	-0.00277552	0	-0.000669362	0	0	0
1.56	-58.8621	1399.52	-21.1259	0.794079	0	-0.280648	0	-0.780496	0	0	0	0	-0.00277553	0	-0.000669468	0	0	0
1.57	-8.42237	1331.36	-12.8027	0.749457	0	-0.280442	-0	0.67351	-0	0	0	0	-0.00277553	0	-0.000669573	0	0	0
1.58	61.7295	1229.51	-6.30215	0.698177	0	-0.281166	-0	2.50384	-0	0	0	0	-0.00277554	0	-0.000669678	0	0	0
1.59	140.659	1095.17	20.0215	0.645774	0	-0.282274	-0	2.84436	-0	0	0	0	-0.00277554	0	-0.000669782	0	0	0
1.6	198.468	935.504	48.1118	0.597782	0	-0.28299	-0	1.14244	-0	0	0	0	-0.00277555	0	-0.000669886	0	0	0
1.61	206.787	745.154	63.5327	0.556762	0	-0.282812	0	-1.31699	0	0	0	0	-0.00277555	0	-0.000669989	0	0	0
1.62	169.664	527.863	62.3684	0.520458	0	-0.281552	0	-2.5977	0	0	0	0	-0.00277556	0	-0.000670092	0	0	0
1.63	116.596	316.413	40.995	0.479093	0	-0.278816	0	-1.68438	0	0	0	0	-0.00277556	0	-0.000670194	0	0	0
1.64	71.5246	152.994	14.7525	0.395833	0	-0.271059	-0	1.03868	-0	0	0	0	-0.00277557	0	-0.000670296	0	0	0
1.65	37.1264	59.18	3.03101	-0.329151	0	-0.178216	-0	4.27753	-0	0	0	0	-0.00277557	0	-0.000670396	0	0	0
1.66	13.1365	23.261	0.889012	-0.00277538	0	-0.000672137	0	0	0	0	0	0	-0.00277557	0	-0.000670497	0	0	0
1.67	-0.0110929	13.9767	-1.97419	-0.00277538	0	-0.000672249	0	0	0	0	0	0	-0.00277558	0	-0.000670596	0	0	0
1.68	-3.91517	10.0107	-0.514583	-0.00277539	0	-0.000672361	0	0	0	0	0	0	-0.00277558	0	-0.000670695	0	0	0
1.69	0	0	0	-0.00277539	0	-0.000672471	0	0	0	0	0	0	-0.00277559	0	-0.000670793	0	0	0
1.7	0	0	0	-0.00277539	0	-0.000672581	0	0	0	0	0	0	-0.00277559	0	-0.000670891	0	0	0
1.71	0	0	0	-0.00277539	0	-0.00067269	0	0	0	0	0	0	-0.0027756	0	-0.000670988	0	0	0
1.72	0	0	0	-0.0027754	0	-0.000672798	0	0	0	0	0	0	-0.0027756	0	-0.000671084	0	0	0
1.73	0	0	0	-0.0027754	0	-0.000672905	0	0	0	0.180695	18.3578	-0.139767	-0.00277561	0	-0.000671179	0	0	0
1.74	0	0	0	-0.0027754	0	-0.000673012	0	0	0	1.91168	60.6165	-7.22804	1.14373	0	-0.284783	0	-0.567218	0
1.75	0	0	0	-0.00277541	0	-0.000673118	0	0	0	6.5724	209.231	-22.2205	1.0323	0	-0.320015	-0	0.362484	-0
1.76	0	0	0	-0.00277541	0	-0.000673222	0	0	0	-3.35254	551.045	-42.4327	1.03587	0	-0.314771	-0	1.40994	-0
1.77	0	0	0	-0.00277541	0	-0.000673326	0	0	0	-64.2486	1000.38	-51.676	1.03336	0	-0.312789	-0	1.30478	-0
1.78	0	0	0	-0.00277542	0	-0.000673429	0	0	0	-158	1278.82	-46.9015	1.0277	0	-0.312675	0	-0.120207	0
1.79	0	0	0	-0.00277542	0	-0.000673531	0	0	0	-213.33	1287.72	-71.1716	1.01642	0	-0.314802	0	-1.84612	0
1.8	0	0	0	-0.00277542	0	-0.000673632	0	0	0	-225.997	1215.2	-111.938	0.994791	0	-0.319485	0	-2.7924	0
1.81	0	0	0	-0.00277542	0	-0.000673732	0	0	0	-227.971	1209.97	-66.3697	0.959951	0	-0.32565	0	-2.97744	0
1.82	0	0	0	-0.00277543	0	-0.000673831	0	0	0	-211.217	1279.27	41.0945	0.917713	0	-0.330953	0	-3.2194	0
1.83	0	0	0	-0.00277543	0	-0.000673929	0	0	0	-161.172	1369.25	72.7723	0.878697	0	-0.334282	0	-3.81606	0
1.84	0	0	0	-0.00277543	0	-0.000674026	0	0	0	-102.509	1429.22	31.8708	0.846712	0	-0.33627	0	-4.1763	0
1.85	0	0	0	-0.00277543	0	-0.000674122	0	0	0	-62.8603	1443.25	21.5622	0.818823	0	-0.337654	0	-3.78735	0
1.86	0	0	0	-0.00277544	0	-0.000674217	0	0	0	-32.6912	1421.47	43.8217	0.790908	0	-0.338751	0	-2.96507	0
1.87	0	0	0	-0.00277544	0	-0.000674311	0	0	0	1.80974	1371.5	40.1844	0.760395	0	-0.339506	0	-2.54527	0
1.88	0	0	0	-0.00277544	0	-0.000674404	0	0	0	40.2344	1297.03	17.7081	0.72676	0	-0.339491	0	-3.10407	0
1.89	0	0	0	-0.00277545	0	-0.000674496	0	0	0	78.1792	1199.2	1.99468	0.690651	0	-0.338326	0	-4.39088	0
1.9	0	0	0	-0.00277545	0	-0.000674586	0	0	0	114.344	1068.26	-11.8633	0.652314	0	-0.336225	0	-5.28216	0
1.91	0	0	0	-0.00277545	0	-0.000674676	0	0	0	142.903	888.426	-27.5875	0.610711	0	-0.333947	0	-4.45255	0
1.92	0	0	0	-0.00277545	0	-0.000674764	0	0	0	152.952	662.711	-39.7298	0.563781	0	-0.332366	0	-1.52685	0
1.93	0	0	0	-0.00277546	0	-0.000674852	0	0	0	133.569	435.619	-46.4788	0.509075	0	-0.332118	-0	2.26632	-0
1.94	0	0	0	-0.00277546	0	-0.000674938	0	0	0	97.3134	254.441	-40.3766	0.44288	0	-0.333244	-0	4.84514	-0
1.95	0	0	0	-0.00277546	0	-0.000675023	0	0	0	63.7345	132.544	-21.5634	0.352293	0	-0.333932	-0	4.975	-0
1.96	0	0	0	-0.00277546	0	-0.000675106	0	0	0	33.1615	62.7527	-9.2226	0.109249	0	-0.316843	-0	3.27575	-0
1.97	0	0	0	-0.00277546	0	-0.000675189	0	0	0	8.73547	26.2231	-7.47288	-0.0027757	0	-0.000673208	0	0	0
1.98	0	0	0	-0.00277547	0	-0.00067527	0	0	0	0	0	0	-0.0027757	0	-0.00067328	0	0	0
1.99	0	0	0	-0.00277547	0	-0.00067535	0	0	0	0	0	0	-0.00277571	0	-0.000673351	0	0	0
2	0	0	0	-0.00277547	0	-0.000675429	0	0	0	0	0	0	-0.00277571	0	-0.000673421	0	0	0
2.01	0	0	0	-0.00277547	0	-0.000675507	0	0	0	0	0	0	-0.00277571	0	-0.00067349	0	0	0
2.02	0	0	0	-0.00277548	0	-0.000675583	0	0	0	0	0	0	-0.00277572	0	-0.000673558	0	0	0
2.03	0	0	0	-0.00277548	0	-0.000675658	0	0	0	0	0	0	-0.00277572	0	-0.000673625	0	0	0
2.04	0	0	0	-0.00277548	0	-0.000675732	0	0	0	0	0	0	-0.00277572	0	-0.00067369	0	0	0
2.05	-2.09244	10.9769	-0.803575	-0.00277548	0	-0.000675804	0	0	0	0	0	0	-0.00277573	0	-0.000673755	0	0	0
2.06	4.42962	41.9469	-4.67757	1.00904	0	-0.339524	-0	3.05666	-0	0	0	0	-0.00277573	0	-0.000673818	0	0	0
2.07	18.6429	168.453	-14.0691	0.943586	0	-0.314415	-0	0.884833	-0	0	0	0	-0.00277573	0	-0.00067388	0	0	0
2.08	27.0237	500.686	-24.3698	0.956103	0	-0.31982	-0	0.549871	-0	0	0	0	-0.00277574	0	-0.000673941	0	0	0
2.09	-9.31414	1013.85	8.475	0.956837	0	-0.321052	-0	2.29427	-0	0	0	0	-0.00277574	0	-0.000674001	0	0	0
2.1	-93.1505	1399.24	122.448	0.95428	0	-0.32198	-0	3.40889	-0	0	0	0	-0.00277574	0	-0.000674059	0	0	0
2.11	-167.828	1451.87	205.452	0.946484	0	-0.323004	-0	1.94587	-0	0	0	0	-0.00277574	0	-0.000674116	0	0	0
2.12	-206.604	1371.73	125.043	0.92824	0	-0.323612	0	-1.09764	0	0	0	0	-0.00277575	0	-0.000674172	0	0	0
2.13	-203.892	1376.74	-7.96139	0.895901	0	-0.322506	0	-3.14229	0	0	0	0	-0.00277575	0	-0.000674227	0	0	0
2.14	-167.836	1486.85	-22.2292	0.856056	0	-0.31935	0	-3.01928	0	0	0	0	-0.00277575	0	-0.000674281	0	0	0
2.15	-118.633	1612.91	37.0217	0.820821	0	-0.315991	0	-1.91772	0	0	0	0	-0.00277575	0	-0.000674333	0	0	0
2.16	-71.2443	1675.16	44.6756	0.793993	0	-0.313998	0	-1.50526	0	0	0	0	-0.00277576	0	-0.000674384	0	0	0
2.17	-37.1741	1660.26	14.1103	0.771945	0	-0.313198	0	-2.08948	0	0	0	0	-0.00277576	0	-0.000674434	0	0	0
2.18	-13.9609	1603.57	9.13264	0.750114	0	-0.312731	0	-2.80885	0	0	0	0	-0.00277576	0	-0.000674483	0	0	0
2.19	9.7356	1531.06	20.3001	0.725713	0	-0.312113	0	-2.85729	0	0	0	0	-0.00277576	0	-0.00067453	0	0	0
2.2	40.1546	1445.68	24.1257	0.698448	0	-0.31146	0	-2.20122	0	0	0	0	-0.00277576	0	-0.000674576	0	0	0
2.21	74.618	1339.38	29.5272	0.670013	0	-0.3111	0	-1.45821	0	0	0	0	-0.00277577	0	-0.00067462	0	0	0
2.22	107.557	1201.12	41.243	0.64223	0	-0.311116	0	-1.28695	0	0	0	0	-0.00277577	0	-0.000674664	0	0	0
2.23	130.654	1021.97	56.0479	0.615262	0	-0.311284	0	-1.71639	0	0	0	0	-0.00277577	0	-0.000674706	0	0	0
2.24	133.984	801.321	71.0313	0.586848	0	-0.3113	0	-1.94262	0	0	0	0	-0.00277577	0	-0.000674747	0	0	0
2.25	112.585	554.464	71.403	0.551283	0	-0.311008	0	-0.978422	0	0	0	0	-0.00277577	0	-0.000674786	0	0	0
2.26	81.6611	322.349	44.2475	0.495002	0	-0.310226	-0	1.27221	-0	0	0	0	-0.00277578	0	-0.000674824	0	0	0
2.27	55.6587	153.088	6.91253	0.370688	0	-0.306733	-0	3.7378	-0	0	0	0	-0.00277578	0	-0.000674861	0	0	0
2.28	31.4187	59.1326	-7.84761	-0.513308	0	-0.247886	-0	5.23074	-0	0	0	0	-0.00277578	0	-0.000674896	0	0	0
2.29	9.39225	22.7045	-2.08039	-0.00277552	0	-0.000677128	0	0	0	0	0	0	-0.00277578	0	-0.00067493	0	0	0
2.3	-2.61486	11.6055	2.70374	-0.00277552	0	-0.000677165	0	0	0	0	0	0	-0.00277578	0	-0.000674963	0	0	0
2.31	0	0	0	-0.00277552	0	-0.0006772	0	0	0	0	0	0	-0.00277578	0	-0.000674995	0	0	0
2.32	0	0	0	-0.00277552	0	-0.000677234	0	0	0	0	0	0	-0.00277579	0	-0.000675025	0	0	0
2.33	0	0	0	-0.00277552	0	-0.000677266	0	0	0	0	0	0	-0.00277579	0	-0.000675053	0	0	0
2.34	0	0	0	-0.00277552	0	-0.000677297	0	0	0	0	0	0	-0.00277579	0	-0.000675081	0	0	0
2.35	0	0	0	-0.00277552	0	-0.000677326	0	0	0	0	0	0	-0.00277579	0	-0.000675106	0	0	0
2.36	0	0	0	-0.00277553	0	-0.000677353	0	0	0	0	0	0	-0.00277579	0	-0.000675131	0	0	0
2.37	0	0	0	-0.00277553	0	-0.00067738	0	0	0	0	0	0	-0.00277579	0	-0.000675154	0	0	0
2.38	0	0	0	-0.00277553	0	-0.000677404	0	0	0	-1.01782	15.8647	-2.93806	-0.00277579	0	-0.000675176	0	0	0
2.39	0	0	0	-0.00277553	0	-0.000677427	0	0	0	-0.323492	49.4277	-5.52071	0.976711	0	-0.263346	-0	1.61947	-0
2.4	0	0	0	-0.00277553	0	-0.000677448	0	0	0	2.17729	175.587	-12.5556	0.903006	0	-0.310427	-0	1.3916	-0
2.41	0	0	0	-0.00277553	0	-0.000677468	0	0	0	-2.97957	485.353	-26.3399	0.908933	0	-0.299254	0	-0.390251	0
2.42	0	0	0	-0.00277553	0	-0.000677486	0	0	0	-35.2905	927.595	-35.5246	0.905673	0	-0.294703	0	-3.84515	0
2.43	0	0	0	-0.00277553	0	-0.000677503	0	0	0	-88.5816	1233.64	-44.0925	0.898511	0	-0.291901	0	-7.31662	0
2.44	0	0	0	-0.00277553	0	-0.000677518	0	0	0	-134.948	1272.29	-88.2195	0.886432	0	-0.290441	0	-8.68869	0
2.45	0	0	0	-0.00277553	0	-0.000677532	0	0	0	-166.03	1208.51	-137.519	0.866718	0	-0.29049	0	-7.29712	0
2.46	0	0	0	-0.00277553	0	-0.000677544	0	0	0	-176.695	1188.06	-103.296	0.837292	0	-0.292062	0	-4.48748	0
2.47	0	0	0	-0.00277553	0	-0.000677554	0	0	0	-159.237	1220.89	-17.8956	0.80051	0	-0.294686	0	-2.18574	0
2.48	0	0	0	-0.00277553	0	-0.000677563	0	0	0	-118.245	1262.9	9.73389	0.761956	0	-0.29744	0	-1.12471	0
2.49	0	0	0	-0.00277553	0	-0.00067757	0	0	0	-67.19	1285.14	-12.0592	0.723895	0	-0.299326	0	-0.720062	0
2.5	0	0	0	-0.00277553	0	-0.000677575	0	0	0	-10.3382	1283.96	-17.3832	0.684512	0	-0.299805	0	-0.306866	0
2.51	0	0	0	-0.00277553	0	-0.000677579	0	0	0	57.9339	1258.21	-12.6048	0.641962	0	-0.299016	-0	0.12919	-0
2.52	0	0	0	-0.00277553	0	-0.000677582	0	0	0	131.787	1200.11	-20.599	0.596424	0	-0.297517	-0	0.386299	-0
2.53	0	0	0	-0.00277553	0	-0.000677583	0	0	0	195.809	1104.15	-31.0644	0.549269	0	-0.29593	-0	0.63818	-0
2.54	0	0	0	-0.00277553	0	-0.000677582	0	0	0	245.07	968.936	-41.6355	0.501355	0	-0.294766	-0	1.31139	-0
2.55	0	0	0	-0.00277553	0	-0.00067758	0	0	0	270.578	797.442	-51.2586	0.451962	0	-0.294318	-0	2.53242	-0
2.56	0	0	0	-0.00277553	0	-0.000677577	0	0	0	258.153	602.29	-47.5962	0.398787	0	-0.294632	-0	3.87984	-0
2.57	0	0	0	-0.00277553	0	-0.000677573	0	0	0	210.872	408.955	-32.5385	0.339941	0	-0.295553	-0	4.60865	-0
2.58	0	0	0	-0.00277553	0	-0.000677568	0	0	0	149.451	245.801	-21.6331	0.285204	0	-0.29641	-0	4.00435	-0
2.59	0	0	0	-0.00277553	0	-0.000677561	0	0	0	92.3874	128.447	-13.9464	0.313047	0	-0.293742	-0	1.73531	-0
